<?xml version="1.0" encoding="UTF-8"?>
<!DOCTYPE svg PUBLIC "-//W3C//DTD SVG 1.1//EN" "http://www.w3.org/Graphics/SVG/1.1/DTD/svg11.dtd">
<!-- Creator: CorelDRAW X8 -->
<svg xmlns="http://www.w3.org/2000/svg" xml:space="preserve" width="77.2359mm" height="80.8953mm" version="1.1" style="shape-rendering:geometricPrecision; text-rendering:geometricPrecision; image-rendering:optimizeQuality; fill-rule:evenodd; clip-rule:evenodd"
viewBox="0 0 33 34"
 xmlns:xlink="http://www.w3.org/1999/xlink">
 <defs>
  <style type="text/css">
   <![CDATA[
    .fil0 {fill:url(#id0)}
    .fil1 {fill:url(#id1);fill-rule:nonzero}
   ]]>
  </style>
  <linearGradient id="id0" gradientUnits="userSpaceOnUse" x1="19.529" y1="17.7796" x2="19.529" y2="9.47282">
   <stop offset="0" style="stop-opacity:1; stop-color:#F6394A"/>
   <stop offset="1" style="stop-opacity:1; stop-color:#F97872"/>
  </linearGradient>
  <linearGradient id="id1" gradientUnits="userSpaceOnUse" x1="14.6152" y1="14.6357" x2="25.3996" y2="25.3794">
   <stop offset="0" style="stop-opacity:1; stop-color:#168EFF"/>
   <stop offset="0.478431" style="stop-opacity:1; stop-color:#1EABFF"/>
   <stop offset="1" style="stop-opacity:1; stop-color:#27C8FF"/>
  </linearGradient>
 </defs>
 <g id="图层_x0020_1">
  <metadata id="CorelCorpID_0Corel-Layer"/>
  <path class="fil0" d="M16 14l3 3c0,0 0,0 0,0l3 -3c1,0 1,0 1,-1l-4 -3 0 0c0,0 0,0 0,0 -2,2 -2,2 -3,3 0,0 0,0 0,1 0,0 0,0 0,0z"/>
  <path class="fil1" d="M9 19l-2 2 -3 3c0,0 0,0 -1,0l-3 -3c0,-1 0,-1 0,-1l18 -18 1 -2 1 0c0,0 0,0 0,0l13 12c0,1 0,1 0,1l-9 9c0,1 0,1 0,1 0,0 0,0 0,0l5 5c0,0 0,1 0,1l-2 5c-1,1 -1,0 -2,0l-15 -15c0,0 0,-1 -1,0zm6 -5l4 4c0,0 0,0 1,0l4 -4c0,0 0,0 0,-1l-4 -4 0 0c-1,0 -1,0 -1,0 -2,2 -2,2 -4,4 0,0 0,0 0,1 0,0 0,0 0,0z"/>
 </g>
</svg>
