<?xml version="1.0" encoding="UTF-8"?>
<!DOCTYPE svg PUBLIC "-//W3C//DTD SVG 1.1//EN" "http://www.w3.org/Graphics/SVG/1.1/DTD/svg11.dtd">
<!-- Creator: CorelDRAW X8 -->
<svg xmlns="http://www.w3.org/2000/svg" xml:space="preserve" width="84.8825mm" height="84.8825mm" version="1.1" style="shape-rendering:geometricPrecision; text-rendering:geometricPrecision; image-rendering:optimizeQuality; fill-rule:evenodd; clip-rule:evenodd"
viewBox="0 0 4155 4155"
 xmlns:xlink="http://www.w3.org/1999/xlink">
 <defs>
  <style type="text/css">
   <![CDATA[
    .fil2 {fill:#FEFEFE}
    .fil0 {fill:#5085FF}
    .fil1 {fill:#FEFEFE;fill-rule:nonzero}
   ]]>
  </style>
 </defs>
 <g id="图层_x0020_1">
  <metadata id="CorelCorpID_0Corel-Layer"/>
  <rect class="fil0" width="4155" height="4155" rx="489" ry="489"/>
  <g id="_993379648">
   <path class="fil1" d="M3239 1469c0,535 0,0 0,0z"/>
   <path class="fil1" d="M3578 3083c-13,15 -32,43 -55,82 -167,-34 -485,-241 -954,-621 -15,0 -31,4 -46,14 -16,21 -30,73 -44,154 -12,72 -18,128 -18,167 0,82 19,147 56,198 16,-13 37,-43 64,-88l20 0 0 9c2,25 -9,50 -35,75 -25,24 -51,36 -78,36 -30,0 -58,-26 -88,-79 -37,-69 -56,-106 -58,-108l-11 9c8,66 35,124 84,172 -120,-122 -180,-339 -180,-650 0,-161 28,-322 84,-484 50,-146 101,-293 151,-440 20,-16 38,-38 56,-67 27,-45 42,-70 46,-76 18,-23 66,-74 143,-151 78,-78 125,-121 140,-129l3 -20 6 3c31,0 48,-1 52,-3l9 9c2,7 4,14 6,20 12,-20 26,-28 43,-26l9 0 15 11c15,8 44,12 84,12 26,0 63,-8 113,-23 49,-16 87,-24 115,-24 74,0 109,30 105,88l0 11c-39,22 -61,39 -67,53 -8,25 -21,64 -38,117 -4,10 -22,40 -52,93 -24,37 -36,70 -36,99 0,24 2,58 6,105 4,46 6,82 6,105 0,138 2,218 6,239 33,187 98,424 195,711 8,29 34,94 79,196 33,74 55,141 64,201zm-529 -968c-16,-80 -44,-187 -85,-321 -11,0 -28,4 -48,12 -21,8 -37,12 -48,12l-9 0c-7,-8 -19,-21 -35,-39 -27,10 -55,50 -81,120 7,10 11,20 11,29 0,8 -3,17 -8,27l-3 -18c-41,41 -69,95 -82,163l8 3 36 0 11 6c138,-10 198,-15 178,-15 14,0 35,4 64,12 29,8 52,11 67,9l24 0zm309 810c-53,-132 -130,-330 -231,-594 -116,35 -295,66 -536,93 27,89 138,190 332,303 159,93 304,159 435,198z"/>
   <path class="fil1" d="M3030 781c0,14 -13,38 -41,72 -27,34 -44,64 -50,91 -55,0 -134,8 -236,24 -101,14 -178,22 -229,22 -17,0 -45,-2 -84,-8 -39,-5 -69,-6 -90,-6 -61,6 -150,21 -265,45 -108,41 -224,153 -347,337 -123,184 -189,337 -199,459 58,-17 109,-25 153,-25 326,0 629,56 908,168l46 -5c11,27 41,67 93,117 50,51 81,98 91,139 -14,61 -57,109 -132,147 -103,51 -162,85 -179,103 -487,-38 -722,-57 -704,-57 -52,0 -186,77 -404,230 -105,272 -173,491 -204,658 -30,167 -46,391 -46,674 0,20 6,41 16,61l-16 10 -15 46c-33,7 -83,31 -147,72 -10,-31 -15,-78 -15,-141 0,-62 -6,-109 -16,-140 7,-68 9,-266 5,-592 0,-241 19,-437 57,-587l-46 -41c0,-20 -2,-51 -6,-92 0,-37 0,-66 0,-87 0,-84 24,-168 72,-250 84,-149 127,-226 127,-230 54,-128 109,-300 163,-514l-20 0c-79,-7 -132,47 -159,163 -37,3 -90,37 -160,101 -70,66 -130,98 -180,98 -48,0 -93,-37 -133,-112 -41,-75 -61,-140 -61,-195 0,-61 20,-132 61,-214l-6 -30c-6,-11 -15,-26 -25,-46l41 -36 -16 -383c45,-71 106,-99 184,-81 11,-31 33,-62 69,-94 36,-34 57,-56 64,-70 30,-6 78,-13 142,-20l26 25c10,4 20,5 30,5 -3,0 91,-13 286,-41 357,-50 612,-76 765,-76 507,0 784,102 832,306z"/>
  </g>
  <circle class="fil0" cx="912" cy="1212" r="155"/>
  <circle class="fil2" cx="912" cy="1156" r="100"/>
 </g>
</svg>
